<?xml version="1.0" encoding="UTF-8" standalone="no"?>
<svg width="9px" height="16px" viewBox="0 0 9 16" version="1.1" xmlns="http://www.w3.org/2000/svg" xmlns:xlink="http://www.w3.org/1999/xlink">
    <!-- Generator: Sketch 46.1 (44463) - http://www.bohemiancoding.com/sketch -->
    <title>icon</title>
    <desc>Created with Sketch.</desc>
    <defs></defs>
    <g id="Page-1" stroke="none" stroke-width="1" fill="none" fill-rule="evenodd">
        <g id="Mobile-Copy" transform="translate(-75.000000, -989.000000)" fill="#FFFFFF">
            <g id="Tool" transform="translate(0.000000, 969.000000)">
                <g id="button" transform="translate(56.000000, 6.000000)">
                    <g id="icon" transform="translate(13.000000, 13.000000)">
                        <path d="M14.4999738,17 C14.3769741,17 14.2539745,16.954999 14.1579748,16.8639969 L6.15799951,9.36382694 C6.05699982,9.26982481 6,9.13782182 6,8.99981869 C6,8.86081554 6.05699982,8.72881255 6.15799951,8.63481042 L14.1579748,1.13464044 C14.3589742,0.946636176 14.6759732,0.956636402 14.8649726,1.15764096 C15.0539721,1.35864551 15.0429721,1.6756527 14.8419727,1.86365696 L7.2309962,8.99981869 L14.8419727,16.1349804 C15.0429721,16.3239847 15.0539721,16.6409919 14.8649726,16.8419964 C14.7659729,16.9459988 14.6329734,17 14.4999738,17" id="Fill-1" transform="translate(10.500000, 9.000000) scale(-1, 1) translate(-10.500000, -9.000000) "></path>
                    </g>
                </g>
            </g>
        </g>
    </g>
</svg>