<?xml version="1.0" encoding="UTF-8" standalone="no"?>
<svg width="400px" height="400px" viewBox="0 0 400 400" version="1.1" xmlns="http://www.w3.org/2000/svg" xmlns:xlink="http://www.w3.org/1999/xlink">
    <!-- Generator: Sketch 46.2 (44496) - http://www.bohemiancoding.com/sketch -->
    <title>1700</title>
    <desc>Created with Sketch.</desc>
    <defs></defs>
    <g id="Page-1" stroke="none" stroke-width="1" fill="none" fill-rule="evenodd">
        <g id="1700" fill-rule="nonzero" fill="#FFFFFF">
            <g id="electric_guitar_1193525_easyicon.net">
                <path d="M119.987124,313.178541 L84.1201717,277.311588 L104.779399,256.652361 L140.646352,292.518455 L119.987124,313.178541 Z M93.8317597,277.312446 L119.987124,303.467811 L130.934764,292.519313 L104.779399,266.363948 L93.8317597,277.312446 Z" id="Shape"></path>
                <path d="M96.7712446,334.538627 C95.8922747,334.538627 95.0141631,334.203004 94.3429185,333.533476 L64.5248927,303.715451 C63.1841202,302.37382 63.1841202,300.200429 64.5248927,298.859657 C65.8665236,297.518884 68.0399142,297.518884 69.3806867,298.859657 L99.1987124,328.677682 C100.539485,330.019313 100.539485,332.192704 99.1987124,333.533476 C98.5283262,334.203863 97.6502146,334.538627 96.7712446,334.538627 Z" id="Shape"></path>
                <path d="M110.84778,319.907375 C110.125033,319.907375 109.39542,319.679907 108.774819,319.209521 L75.1782523,293.722826 C73.6675227,292.576903 73.3722438,290.422396 74.5173081,288.912525 C75.6632309,287.401796 77.8177373,287.105658 79.3276086,288.251581 L112.924175,313.738276 C114.434905,314.884199 114.730184,317.038705 113.585119,318.548577 C112.910441,319.438705 111.885548,319.907375 110.84778,319.907375 Z" id="Shape"></path>
                <path d="M138.088197,214.382833 C135.593777,214.382833 133.248712,213.411159 131.485622,211.648069 C127.845279,208.006867 127.845279,202.083262 131.485622,198.442918 C133.249571,196.679828 135.594635,195.708155 138.088197,195.708155 C140.58176,195.708155 142.926824,196.67897 144.689914,198.442918 C148.331116,202.08412 148.331116,208.007725 144.689914,211.648069 C142.927682,213.411159 140.582618,214.382833 138.088197,214.382833 Z M138.088197,202.575107 C137.428112,202.575107 136.807511,202.83176 136.340558,203.298712 C135.377468,204.261803 135.377468,205.829185 136.340558,206.792275 C137.272747,207.725322 138.900215,207.72618 139.83412,206.792275 C140.798069,205.829185 140.798069,204.261803 139.83412,203.298712 C139.368884,202.83176 138.748283,202.575107 138.088197,202.575107 Z" id="Shape"></path>
                <path d="M84.0154506,377.472961 C81.5218884,377.472961 79.176824,376.501288 77.4128755,374.738197 C75.6497854,372.975107 74.6781116,370.630043 74.6781116,368.135622 C74.6781116,365.64206 75.6497854,363.296996 77.4128755,361.533047 C79.176824,359.769957 81.5218884,358.798283 84.0154506,358.798283 C86.5090129,358.798283 88.8540773,359.769957 90.6180258,361.533047 C92.3811159,363.296996 93.3527897,365.64206 93.3527897,368.135622 C93.3527897,370.630043 92.3811159,372.975107 90.6171674,374.738197 C88.8540773,376.501288 86.5090129,377.472961 84.0154506,377.472961 Z M84.0154506,365.665236 C83.3553648,365.665236 82.7356223,365.921888 82.2686695,366.388841 C81.8017167,366.854936 81.5450644,367.475536 81.5450644,368.135622 C81.5450644,368.795708 81.8017167,369.415451 82.2686695,369.882403 C83.2025751,370.816309 84.8291845,370.816309 85.7622318,369.882403 C86.2291845,369.416309 86.4858369,368.795708 86.4858369,368.135622 C86.4858369,367.475536 86.2291845,366.855794 85.7622318,366.388841 C85.295279,365.921888 84.6746781,365.665236 84.0154506,365.665236 Z" id="Shape"></path>
                <path d="M106.328541,355.155365 C103.834979,355.155365 101.489914,354.183691 99.7259657,352.420601 C96.0856223,348.780258 96.0856223,342.855794 99.7259657,339.215451 C101.489914,337.452361 103.834979,336.480687 106.328541,336.480687 C108.822961,336.480687 111.168026,337.452361 112.931116,339.216309 C116.571459,342.856652 116.571459,348.780258 112.931116,352.420601 C111.168026,354.183691 108.822961,355.155365 106.328541,355.155365 Z M106.328541,343.347639 C105.668455,343.347639 105.048712,343.604292 104.58176,344.071245 C103.61867,345.034335 103.61867,346.600858 104.58176,347.563948 C105.514807,348.497854 107.141416,348.496996 108.074464,347.563948 C109.037554,346.6 109.037554,345.033476 108.074464,344.070386 C107.608369,343.604292 106.988627,343.347639 106.328541,343.347639 Z" id="Shape"></path>
                <path d="M110.620386,384.339914 C108.125966,384.339914 105.780901,383.36824 104.017811,381.60515 C100.377468,377.964807 100.377468,372.040343 104.017811,368.4 C105.78176,366.63691 108.126824,365.665236 110.620386,365.665236 C113.113948,365.665236 115.459013,366.63691 117.222961,368.4 C120.863305,372.040343 120.863305,377.964807 117.222961,381.60515 C115.459013,383.36824 113.113948,384.339914 110.620386,384.339914 Z M110.620386,372.532189 C109.9603,372.532189 109.3397,372.788841 108.873605,373.255794 C107.910515,374.218884 107.910515,375.785408 108.873605,376.748498 C109.806652,377.681545 111.43412,377.682403 112.367167,376.748498 C113.330258,375.785408 113.330258,374.218884 112.367167,373.255794 C111.900215,372.7897 111.280472,372.532189 110.620386,372.532189 Z" id="Shape"></path>
                <path d="M133.800858,362.022318 C131.306438,362.022318 128.961373,361.050644 127.198283,359.286695 C125.435193,357.523605 124.463519,355.178541 124.463519,352.684979 C124.463519,350.190558 125.435193,347.845494 127.199142,346.082403 C128.962232,344.319313 131.307296,343.347639 133.800858,343.347639 C136.294421,343.347639 138.639485,344.319313 140.403433,346.082403 C142.166524,347.845494 143.138197,350.190558 143.138197,352.684979 C143.138197,355.178541 142.166524,357.523605 140.403433,359.287554 C138.639485,361.050644 136.294421,362.022318 133.800858,362.022318 Z M133.800858,350.214592 C133.140773,350.214592 132.52103,350.471245 132.054077,350.938197 C131.587124,351.40515 131.330472,352.025751 131.330472,352.684979 C131.330472,353.344206 131.587124,353.964807 132.054077,354.43176 C132.987124,355.365665 134.613734,355.365665 135.546781,354.43176 C136.013734,353.965665 136.270386,353.345064 136.270386,352.684979 C136.270386,352.024893 136.013734,351.40515 135.546781,350.938197 C135.080687,350.471245 134.460086,350.214592 133.800858,350.214592 Z" id="Shape"></path>
                <path d="M398.884664,32.9656652 L397.172218,29.8832618 C394.324149,24.7562232 389.052905,11.8927039 388.999686,11.7630901 L388.454621,10.4309013 L387.122432,9.88583691 C386.992819,9.83261803 374.129299,4.56137339 369.002261,1.71330472 L365.918999,0 L364.288956,3.12703863 C362.621145,6.327897 360.494106,9.54248927 358.09754,12.6866953 L354.094965,8.68412017 C352.779943,7.36909871 350.617711,7.17596567 349.236596,8.42060086 C347.763634,9.74763948 347.718999,12.0188841 349.10269,13.4034335 L353.729299,18.0300429 C351.61857,20.4515021 349.403119,22.7957082 347.177368,25.0240343 L342.466638,20.3133047 C341.151617,18.9982833 338.989385,18.8051502 337.608269,20.0497854 C336.135308,21.376824 336.090673,23.6480687 337.474364,25.032618 L342.228012,29.7862661 C339.700973,32.127897 337.258913,34.2635193 335.036596,36.1407725 L330.838312,31.9424893 C329.523291,30.6274678 327.361059,30.4343348 325.979943,31.67897 C324.506982,33.0060086 324.462347,35.2772532 325.846038,36.6618026 L329.695823,40.511588 C326.746467,42.8463519 324.854621,44.2137339 324.782518,44.2660944 L323.49754,45.1879828 L322.577368,55.92103 L179.530158,194.698712 C178.276939,192.953648 176.891531,191.290129 175.349042,189.747639 C160.526724,174.927039 136.946467,174.392275 122.783377,188.554506 C116.983377,194.355365 111.006553,206.057511 107.185952,219.096996 C104.405694,228.597425 95.1885269,234.588841 85.2597715,233.347639 C60.9524754,230.296996 37.6846642,237.872103 21.4194281,254.137339 C-9.39945598,284.956223 -6.63035726,337.871245 27.591102,372.094421 C45.8786556,390.381116 69.4992565,399.687554 92.2374539,399.685837 C112.051188,399.684979 131.197969,392.617167 145.548184,378.266094 C160.703548,363.11073 168.263205,342.293562 166.834879,319.644635 C166.062347,307.561373 173.826295,296.27897 185.718141,292.207725 C192.511274,289.876395 199.064922,286.67897 205.197969,282.704721 C209.791102,279.725322 214.293248,276.185408 218.579943,272.181974 C221.798827,269.170815 222.30269,264.520172 219.804836,260.871245 C217.305265,257.222318 212.787668,256.008584 208.844321,257.908155 L208.002261,258.303863 C201.868355,261.107296 194.799686,260.570815 189.516424,256.876395 C189.288098,256.72103 189.061488,256.548498 188.836596,256.378541 L188.791102,256.344206 C185.282089,253.641202 183.952475,249.52618 184.215995,245.402575 C184.46578,241.493562 186.254621,237.841202 188.98166,235.029185 L342.963634,76.3090129 L353.69754,75.3888412 L354.619428,74.1038627 C354.671789,74.0309013 356.036596,72.1424893 358.367926,69.1957082 L362.269214,73.0969957 C362.9396,73.767382 363.817711,74.1021459 364.696681,74.1021459 C365.522432,74.1021459 366.347325,73.8060086 367.000544,73.2145923 C368.469214,71.8832618 368.395394,69.5107296 366.992819,68.1090129 L362.737025,63.8532189 C364.611703,61.632618 366.757626,59.1845494 369.095823,56.6609442 L373.900973,61.4660944 C374.571359,62.1364807 375.450329,62.472103 376.329299,62.472103 C377.15505,62.472103 377.98166,62.1759657 378.634879,61.5828326 C380.101832,60.2515021 380.025437,57.87897 378.624578,56.4781116 L373.858913,51.711588 C376.087239,49.4849785 378.43402,47.2746781 380.857196,45.1622318 L385.531874,49.8369099 C386.202261,50.5072961 387.080372,50.8420601 387.959342,50.8420601 C388.785093,50.8420601 389.609986,50.5459227 390.263205,49.9545064 C391.731874,48.623176 391.658055,46.2506438 390.25548,44.848927 L386.196252,40.7896996 C389.341317,38.3939914 392.555909,36.2635193 395.760201,34.5939914 L398.884664,32.9656652 Z M184.628012,261.806009 L184.700115,261.860086 C185.01342,262.096137 185.332733,262.335622 185.615136,262.527039 C192.846896,267.583691 202.518999,268.35794 210.886381,264.533047 L211.793677,264.106438 C213.085523,263.486695 213.862347,264.348498 214.136166,264.748498 C214.409986,265.148498 214.93445,266.185408 213.888956,267.16309 C209.89754,270.890987 205.715565,274.181116 201.459771,276.940773 C195.797111,280.6103 189.7499,283.561373 183.488098,285.71073 C168.676081,290.781974 159.009128,304.916738 159.979085,320.07897 C161.281231,340.728755 154.430587,359.66867 140.688956,373.409442 C112.548184,401.551073 63.9893852,398.782833 32.4443208,367.237768 C0.899256469,335.692704 -1.86984224,287.133906 26.272647,258.993133 C41.0271535,244.237768 62.216853,237.374249 84.4022608,240.161373 C97.6872393,241.824034 110.041746,233.777682 113.773935,221.026609 C117.236596,209.209442 122.677797,198.369099 127.636596,193.4103 C139.121574,181.924464 158.345608,182.458369 170.489814,194.603433 C172.01342,196.127039 173.363634,197.781974 174.540458,199.535622 L145.512132,227.697854 L139.819428,222.00515 L119.160201,242.664378 L155.027153,278.53133 L175.686381,257.872103 L171.185952,253.371674 L177.353334,247.014592 C177.500973,252.566524 179.712132,258.020601 184.628012,261.806009 Z M165.975651,257.871245 L155.027153,268.818884 L128.871789,242.663519 L139.820287,231.71588 L165.975651,257.871245 Z M166.330158,248.515021 L150.368784,232.553648 L325.850329,62.311588 L336.573076,73.0343348 L166.330158,248.515021 Z M349.982518,68.8154506 L342.689814,69.4403433 L329.443462,56.1939914 L330.068355,48.9021459 C335.701832,44.7064378 357.844321,27.5459227 368.712132,9.28412017 C373.580802,11.6583691 380.345608,14.5090129 383.19196,15.6927039 C384.374793,18.5381974 387.226295,25.3038627 389.600544,30.1725322 C371.338741,41.039485 354.178226,63.1819742 349.982518,68.8154506 Z" id="Shape"></path>
            </g>
        </g>
    </g>
</svg>