<?xml version="1.0" encoding="UTF-8" standalone="no"?>
<svg width="400px" height="400px" viewBox="0 0 400 400" version="1.1" xmlns="http://www.w3.org/2000/svg" xmlns:xlink="http://www.w3.org/1999/xlink">
    <!-- Generator: Sketch 46.2 (44496) - http://www.bohemiancoding.com/sketch -->
    <title>600</title>
    <desc>Created with Sketch.</desc>
    <defs></defs>
    <g id="Page-1" stroke="none" stroke-width="1" fill="none" fill-rule="evenodd">
        <g id="600" fill-rule="nonzero" fill="#FFFFFF">
            <g id="singer_1152024_easyicon.net" transform="translate(0.000000, 53.000000)">
                <path d="M172.341716,0.0168421053 C190.595721,0.0168421053 205.396267,14.8173874 205.396267,33.0713932 C205.396267,51.325399 190.595721,66.1259443 172.341716,66.1259443 C154.08771,66.1259443 139.287165,51.325399 139.287165,33.0713932 C139.287165,14.8173874 154.08771,0.0168421053 172.341716,0.0168421053 Z M201.788174,74.1447471 L187.215895,81.5229294 L184.26315,75.6910728 L198.835428,68.320254 L201.788174,74.1447471 Z M386.389999,240.24221 C345.272465,227.827424 312.195823,193.535812 291.357244,157.057254 C290.782895,156.048461 290.149638,155.157483 289.49429,154.347503 C288.861033,152.153193 288.051053,150.003064 287.056987,147.904479 C278.242931,129.363299 266.748577,111.970817 253.118821,96.5296514 C285.569569,89.9099051 317.394423,80.8823088 348.615473,68.8946035 C371.714633,60.0363667 361.67088,22.5342886 338.313999,31.5029772 C295.576504,47.9161192 251.233776,59.7491919 205.823347,65.7135908 C205.676078,65.7283177 205.565626,65.7798619 205.425721,65.8019522 L205.425721,88.7980233 L201.810264,76.8324083 L189.491203,83.731966 L198.128536,93.1056447 L180.389972,81.3903872 C180.088071,81.8911022 129.920849,85.5507395 103.338776,62.5988491 C102.484615,62.0097727 101.645181,61.5311481 100.798383,61.1040677 L95.585057,54.1014217 L88.5308668,59.8890976 C84.4367856,61.221883 80.9538712,64.2335362 78.5607483,68.0772599 L53.782721,88.4077602 L60.1962906,97.0156395 L73.5388717,87.7671395 L36.2945145,262.332576 C34.1738394,262.236851 32.0605277,262.244214 29.9840333,262.428301 C11.3103105,264.040897 1.5169149,276.249506 1.1045614,276.779675 L7.97466525,282.147634 C8.04093635,282.037182 15.7946548,272.376329 30.7277423,271.109814 C32.3771563,270.955182 34.0633876,270.962545 35.7569823,271.03618 L47.2071554,273.318851 L47.2513361,273.097947 C58.0903424,276.337868 69.6288769,283.414148 81.7491244,294.407787 L87.6030714,287.927946 C74.2457634,275.822426 61.3081724,268.076071 48.9522943,264.526885 L84.5766913,96.6327398 C114.752131,117.243051 148.911201,126.167559 184.211606,121.315042 C184.491417,121.572763 184.749138,121.852574 185.043676,122.110295 C200.477479,135.092067 212.634543,149.818978 222.49421,166.747562 C176.074987,179.353797 128.160984,203.86674 120.613442,252.502363 C116.806535,276.956398 154.168708,287.464049 158.012432,262.8112 C165.309616,215.935443 229.482129,202.46032 270.260945,196.083568 C296.165581,233.165929 332.791408,264.541612 376.103252,277.604382 C400.100753,284.857386 410.277048,247.421579 386.389999,240.24221 Z M108.272291,43.9251264 C113.699157,43.9251264 118.102504,48.3284727 118.102504,53.7553393 C118.102504,59.1822059 113.699157,63.5855522 108.272291,63.5855522 C102.845424,63.5855522 98.4420777,59.1822059 98.4420777,53.7553393 C98.4420777,48.3284727 102.845424,43.9251264 108.272291,43.9251264 Z" id="Shape"></path>
            </g>
        </g>
    </g>
</svg>