<?xml version="1.0" encoding="UTF-8" standalone="no"?>
<svg width="400px" height="400px" viewBox="0 0 400 400" version="1.1" xmlns="http://www.w3.org/2000/svg" xmlns:xlink="http://www.w3.org/1999/xlink">
    <!-- Generator: Sketch 46.2 (44496) - http://www.bohemiancoding.com/sketch -->
    <title>3600</title>
    <desc>Created with Sketch.</desc>
    <defs></defs>
    <g id="Page-1" stroke="none" stroke-width="1" fill="none" fill-rule="evenodd">
        <g id="3600" fill-rule="nonzero" fill="#FFFFFF">
            <g id="microphone_1193972_easyicon.net">
                <path d="M431.085,385.816 L289.845,385.816 L289.845,367.303111 C314.036,362.629333 338.322,351.955556 362.12,335.511111 C362.145,335.493333 362.167,335.473778 362.192,335.455111 C362.304,335.376 362.411,335.290667 362.518,335.206222 C362.599,335.141333 362.682,335.077333 362.76,335.009778 C362.848,334.933333 362.93,334.852444 363.013,334.772444 C363.099,334.690667 363.187,334.609778 363.267,334.524444 C363.335,334.452444 363.398,334.375111 363.462,334.300444 C363.546,334.203556 363.632,334.107556 363.709,334.007111 C363.769,333.928889 363.822,333.846222 363.878,333.766222 C363.949,333.664889 364.022,333.565333 364.086,333.461333 C364.147,333.364444 364.198,333.262222 364.253,333.162667 C364.303,333.071111 364.357,332.982222 364.4,332.889778 C364.458,332.772444 364.505,332.651556 364.554,332.532444 C364.586,332.451556 364.623,332.371556 364.654,332.290667 C364.698,332.167111 364.733,332.041778 364.769,331.915556 C364.794,331.831111 364.822,331.747556 364.842,331.663111 C364.87,331.548444 364.889,331.432 364.91,331.314667 C364.929,331.213333 364.949,331.111111 364.962,331.008 C364.976,330.908444 364.982,330.806222 364.988,330.705778 C364.998,330.581333 365.008,330.459556 365.01,330.335111 C365.01,330.305778 365.015,330.277333 365.015,330.247111 C365.015,313.661333 363.097,281.335111 350.252,251.184 C339.668,226.341333 323.819,208.906667 304.048,200.160889 L319.69,182.424 C326.334,196.130667 341.677,205.752889 359.505,205.752889 C363.648,205.752889 367.005,202.768889 367.005,199.086222 C367.005,195.403556 363.648,192.419556 359.505,192.419556 C343.882,192.419556 331.171,181.121778 331.171,167.234667 C331.171,166.926222 331.14,166.625778 331.094,166.328889 C330.922,153.824 326.943,144.033778 319.239,137.234667 C309.341,128.497778 297.215,128.179556 295.557,128.179556 C295.529,128.179556 295.503,128.179556 295.482,128.179556 L286.035,128.179556 L286.035,118.599111 C296.112,114.185778 302.802,107.147556 306.919,100.253333 C309.01,102.060444 311.382,103.491556 314.035,104.535111 C317.573,105.927111 321.154,106.442667 324.521,106.442667 C333.408,106.442667 340.793,102.848 341.876,102.295111 C345.131,100.632889 346.791,97.032 345.373,93.9422222 C343.972,90.888 340.554,89.152 336.967,89.9217778 C336.601,89.9208889 335.864,89.8684444 335.332,89.312 C334.706,88.6577778 331.798,84.6568889 335.996,70.136 C343.167,45.3324444 340.914,23.0355556 329.972,10.4924444 C323.983,3.62844444 315.691,0 305.993,0 C295.557,0 287.47,2.61422222 281.957,7.76977778 C279.513,10.056 277.952,12.5182222 276.94,14.8071111 C273.537,14.2355556 269.93,13.9395556 266.112,13.9395556 C242.779,13.9395556 231.345,24.9697778 225.862,34.2222222 C220.15,43.8613333 219.84,53.496 219.83,53.9013333 C219.829,53.9591111 219.828,54.0168889 219.828,54.0737778 C219.828,54.0782222 219.828,54.0826667 219.828,54.0871111 L219.828,85.6977778 C219.828,86.0177778 219.854,86.3377778 219.906,86.6542222 C221.391,95.7564444 228.862,111.402667 246.664,118.884444 L246.664,128.180444 L237.272,128.180444 C235.89,128.182222 223.527,128.351111 213.462,137.234667 C205.817,143.981333 201.841,153.675556 201.612,166.042667 C201.547,166.395556 201.505,166.755556 201.505,167.125333 C201.505,177.474667 192.034,185.894222 180.392,185.894222 C168.75,185.894222 159.279,177.473778 159.279,167.125333 L159.279,140.296889 C159.279,136.614222 155.921,133.630222 151.779,133.630222 C147.637,133.630222 144.279,136.614222 144.279,140.296889 L144.279,167.125333 C144.279,184.826667 160.479,199.227556 180.392,199.227556 C194.348,199.227556 206.471,192.149333 212.481,181.823111 L227.941,199.353778 C207.284,207.807111 190.759,225.553778 179.838,251.185778 C166.991,281.337778 165.073,313.663111 165.073,330.248889 C165.073,330.306667 165.081,330.360889 165.083,330.417778 C165.086,330.537778 165.093,330.656 165.103,330.775111 C165.112,330.88 165.124,330.983111 165.139,331.087111 C165.155,331.198222 165.174,331.308444 165.196,331.418667 C165.217,331.525333 165.241,331.632 165.268,331.737778 C165.295,331.841778 165.326,331.944889 165.358,332.048889 C165.392,332.155556 165.427,332.261333 165.466,332.366222 C165.504,332.466667 165.546,332.566222 165.589,332.664889 C165.634,332.768 165.681,332.870222 165.732,332.971556 C165.781,333.067556 165.833,333.163556 165.887,333.257778 C165.944,333.357333 166.003,333.456889 166.065,333.553778 C166.123,333.643556 166.184,333.731556 166.247,333.819556 C166.318,333.919111 166.392,334.016889 166.468,334.112 C166.532,334.192 166.598,334.270222 166.667,334.348444 C166.754,334.448 166.845,334.544889 166.938,334.639111 C166.977,334.679111 167.011,334.721778 167.051,334.760889 C167.892,335.575111 188.058,354.807111 222.309,364.551111 C228.231,366.236444 234.215,367.514667 240.244,368.424889 L240.244,385.816889 L123.691,385.816889 L123.691,136.725333 C133.3,133.916444 140.26,125.868444 140.26,116.399111 L140.26,88.2968889 C140.26,76.5004444 129.463,66.9022222 116.191,66.9022222 C102.919,66.9022222 92.123,76.5004444 92.123,88.2968889 L92.123,116.399111 C92.123,125.868444 99.082,133.916444 108.691,136.725333 L108.691,385.816 L7.958,385.816 C3.816,385.816 0.458,388.8 0.458,392.482667 C0.458,396.165333 3.816,399.149333 7.958,399.149333 L431.085,399.149333 C435.228,399.149333 438.585,396.165333 438.585,392.482667 C438.585,388.8 435.228,385.816 431.085,385.816 Z M107.123,88.2968889 C107.123,83.8515556 111.191,80.2355556 116.191,80.2355556 C121.192,80.2355556 125.26,83.8515556 125.26,88.2968889 L125.26,116.399111 C125.26,120.844444 121.192,124.461333 116.191,124.461333 C111.191,124.461333 107.123,120.844444 107.123,116.399111 L107.123,88.2968889 L107.123,88.2968889 Z M316.06,164.928889 L288.432,196.259556 L275.035,196.259556 L297.717,141.748444 C300.348,142.171556 304.888,143.358222 308.671,146.696889 C313.199,150.693333 315.681,156.820444 316.06,164.928889 Z M292.83,16.9555556 C295.399,14.552 299.828,13.3333333 305.993,13.3333333 C311.023,13.3333333 314.989,15.0773333 318.119,18.6648889 C326,27.696 327.314,46.5982222 321.469,66.8177778 C318.284,77.8311111 317.915,86.2986667 320.38,92.4471111 C320.288,92.4142222 320.196,92.3804444 320.106,92.344 C316.465,90.912 313.813,87.1271111 312.211,81.104 L312.211,54.0942222 C312.212,53.208 312.047,36.5315556 298.953,24.8551111 C296.564,22.7253333 293.915,20.912 291.028,19.4017778 C291.428,18.5884444 292.001,17.7306667 292.83,16.9555556 Z M239.351,40.0764444 C244.631,31.4613333 253.386,27.2728889 266.113,27.2728889 C284.799,27.2728889 292.264,36.5866667 295.243,44.2826667 C283.518,40.7484444 273.113,37.3911111 272.974,37.3466667 C270.138,36.4311111 266.954,37.1164444 264.904,39.0888889 C257.708,46.0124444 249.826,49.6382222 241.478,49.864 C239.23,49.9235556 237.219,49.7226667 235.57,49.4373333 C236.188,46.8017778 237.313,43.4017778 239.351,40.0764444 Z M234.828,85.1324444 L234.828,62.8435556 C236.674,63.0746667 238.723,63.2097778 240.901,63.2071111 C248.96,63.1662222 260.648,60.9768889 272.357,51.3155556 C277.866,53.0622222 287.64,56.1217778 297.212,58.928 L297.212,81.9351111 C297.212,81.9466667 297.212,81.9582222 297.212,81.9697778 L297.212,85.1253333 C296.513,88.3706667 291.236,108.114667 266.14,109.679111 L265.903,109.679111 C240.749,108.112 235.504,88.2826667 234.828,85.1324444 Z M265.166,122.999111 C265.327,123.008889 265.488,123.013333 265.65,123.013333 L266.391,123.013333 C266.553,123.013333 266.714,123.008889 266.875,122.999111 C268.306,122.916444 269.683,122.776889 271.034,122.609778 L271.034,134.847111 C271.034,138.529778 274.391,141.513778 278.534,141.513778 L281.821,141.513778 L265.325,181.158222 L248.144,141.513778 L254.163,141.513778 C258.306,141.513778 261.663,138.529778 261.663,134.847111 L261.663,122.692444 C262.807,122.820444 263.967,122.930667 265.166,122.999111 Z M232.389,142.248889 L255.796,196.259556 L244.272,196.259556 L216.645,164.930667 C217.418,148.905778 226.494,143.845333 232.389,142.248889 Z M180.092,327.491556 C180.305,311.181333 182.532,282.507556 193.865,255.907556 C203.888,232.383111 218.174,217.176889 236.364,210.626667 C235.911,211.063111 235.457,211.509333 235.002,211.963556 C224.73,222.225778 219.52,231.513778 219.52,239.568889 C219.52,243.251556 222.877,246.235556 227.02,246.235556 C231.163,246.235556 234.52,243.251556 234.52,239.568889 C234.52,231.146667 248.11,218.003556 257.544,210.929778 L257.544,248.786667 C257.544,252.469333 260.902,255.453333 265.044,255.453333 C269.187,255.453333 272.544,252.469333 272.544,248.786667 L272.544,210.932444 C280.863,217.202667 295.567,230.864 295.567,239.568889 C295.567,243.251556 298.924,246.235556 303.067,246.235556 C307.21,246.235556 310.567,243.251556 310.567,239.568889 C310.567,231.514667 305.358,222.225778 295.085,211.963556 C294.632,211.511111 294.18,211.067556 293.728,210.632 C334.2,225.248889 349.301,281.063111 349.987,326.963556 C308.538,354.704889 267.345,363.144889 227.5,352.025778 C202.582,345.070222 185.665,332.180444 180.092,327.491556 Z M255.244,369.884444 C257.365,369.979556 259.488,370.043556 261.617,370.043556 C266.013,370.043556 270.424,369.837333 274.845,369.434667 L274.845,385.816 L255.245,385.816 L255.245,369.884444 L255.244,369.884444 Z" id="Shape"></path>
                <path d="M79.535,104.732444 C83.677,104.732444 87.035,101.748444 87.035,98.0657778 L87.035,86.7306667 C87.035,72.4408889 100.115,60.816 116.191,60.816 C132.268,60.816 145.347,72.4408889 145.347,86.7306667 L145.347,98.0657778 C145.347,101.748444 148.705,104.732444 152.847,104.732444 C156.989,104.732444 160.347,101.748444 160.347,98.0657778 L160.347,86.7306667 C160.347,65.0888889 140.539,47.4826667 116.191,47.4826667 C91.843,47.4826667 72.035,65.0897778 72.035,86.7306667 L72.035,98.0657778 C72.035,101.748444 75.393,104.732444 79.535,104.732444 Z" id="Shape"></path>
            </g>
        </g>
    </g>
</svg>