<?xml version="1.0" encoding="UTF-8" standalone="no"?>
<svg width="400px" height="400px" viewBox="0 0 400 400" version="1.1" xmlns="http://www.w3.org/2000/svg" xmlns:xlink="http://www.w3.org/1999/xlink">
    <!-- Generator: Sketch 46.2 (44496) - http://www.bohemiancoding.com/sketch -->
    <title>15000-8000</title>
    <desc>Created with Sketch.</desc>
    <defs></defs>
    <g id="Page-1" stroke="none" stroke-width="1" fill="none" fill-rule="evenodd">
        <g id="15000-8000" fill-rule="nonzero" fill="#FFFFFF">
            <g id="piano_1200235_easyicon.net">
                <path d="M321.276596,193.617021 C284.908085,193.617021 255.319149,164.028085 255.319149,127.659574 C255.319149,57.2680851 198.051064,0 127.659574,0 C57.2680851,0 0,57.2680851 0,127.659574 C0,131.185532 2.85787234,134.042553 6.38297872,134.042553 C9.90808511,134.042553 12.7659574,131.185532 12.7659574,127.659574 C12.7659574,64.307234 64.307234,12.7659574 127.659574,12.7659574 C191.011915,12.7659574 242.553191,64.307234 242.553191,127.659574 C242.553191,171.068085 277.868085,206.382979 321.276596,206.382979 C357.645106,206.382979 387.234043,235.971915 387.234043,272.340426 L387.234043,374.468085 L374.468085,374.468085 L374.468085,289.361702 C374.468085,285.835745 371.610213,282.978723 368.085106,282.978723 L31.9148936,282.978723 C28.3897872,282.978723 25.5319149,285.835745 25.5319149,289.361702 L25.5319149,374.468085 L12.7659574,374.468085 L12.7659574,153.191489 C12.7659574,149.665532 9.90808511,146.808511 6.38297872,146.808511 C2.85787234,146.808511 0,149.665532 0,153.191489 L0,380.851064 C0,384.377021 2.85787234,387.234043 6.38297872,387.234043 L25.5319149,387.234043 L25.5319149,393.617021 C25.5319149,397.142979 28.3897872,400 31.9148936,400 L368.085106,400 C371.610213,400 374.468085,397.142979 374.468085,393.617021 L374.468085,387.234043 L393.617021,387.234043 C397.142128,387.234043 400,384.377021 400,380.851064 L400,272.340426 C400,228.931915 364.685106,193.617021 321.276596,193.617021 Z M84.8025532,335.106383 L75.0757447,335.106383 L75.0757447,295.744681 L84.8025532,295.744681 L84.8025532,335.106383 Z M91.1855319,347.87234 C94.7106383,347.87234 97.5685106,345.015319 97.5685106,341.489362 L97.5685106,295.744681 L110.334468,295.744681 L110.334468,341.489362 C110.334468,345.015319 113.19234,347.87234 116.717447,347.87234 L121.580426,347.87234 L121.580426,387.234043 L86.3225532,387.234043 L86.3225532,347.87234 L91.1855319,347.87234 Z M132.826383,335.106383 L123.100426,335.106383 L123.100426,295.744681 L132.826383,295.744681 L132.826383,335.106383 Z M134.346383,347.87234 L139.209362,347.87234 C142.734468,347.87234 145.59234,345.015319 145.59234,341.489362 L145.59234,295.744681 L158.358298,295.744681 L158.358298,341.489362 C158.358298,345.015319 161.21617,347.87234 164.741277,347.87234 L169.604255,347.87234 L169.604255,387.234043 L134.345532,387.234043 L134.345532,347.87234 L134.346383,347.87234 Z M180.851915,335.106383 L171.125106,335.106383 L171.125106,295.744681 L180.851915,295.744681 L180.851915,335.106383 Z M182.371915,347.87234 L187.234894,347.87234 C190.76,347.87234 193.617872,345.015319 193.617872,341.489362 L193.617872,295.744681 L217.629787,295.744681 L217.629787,387.234043 L182.371064,387.234043 L182.371064,347.87234 L182.371915,347.87234 Z M230.396596,295.744681 L254.408511,295.744681 L254.408511,341.489362 C254.408511,345.015319 257.266383,347.87234 260.791489,347.87234 L265.655319,347.87234 L265.655319,387.234043 L230.396596,387.234043 L230.396596,295.744681 Z M276.901277,335.106383 L267.174468,335.106383 L267.174468,295.744681 L276.901277,295.744681 L276.901277,335.106383 Z M278.421277,347.87234 L283.284255,347.87234 C286.809362,347.87234 289.667234,345.015319 289.667234,341.489362 L289.667234,295.744681 L302.433191,295.744681 L302.433191,341.489362 C302.433191,345.015319 305.291064,347.87234 308.81617,347.87234 L313.679149,347.87234 L313.679149,387.234043 L278.421277,387.234043 L278.421277,347.87234 Z M324.925957,335.106383 L315.199149,335.106383 L315.199149,295.744681 L324.925957,295.744681 L324.925957,335.106383 Z M38.2995745,295.744681 L62.3114894,295.744681 L62.3114894,341.489362 C62.3114894,345.015319 65.1693617,347.87234 68.6944681,347.87234 L73.5582979,347.87234 L73.5582979,387.234043 L38.2995745,387.234043 L38.2995745,295.744681 Z M361.70383,387.234043 L326.445106,387.234043 L326.445106,347.87234 L331.308936,347.87234 C334.834043,347.87234 337.691915,345.015319 337.691915,341.489362 L337.691915,295.744681 L361.70383,295.744681 L361.70383,387.234043 L361.70383,387.234043 Z" id="Shape"></path>
                <circle id="Oval" cx="71.4893617" cy="189.787234" r="6.38297872"></circle>
                <circle id="Oval" cx="45.9574468" cy="215.319149" r="6.38297872"></circle>
            </g>
        </g>
    </g>
</svg>